<svg width="44" height="44" viewBox="0 0 44 44" fill="none" xmlns="http://www.w3.org/2000/svg">
<path d="M22 11.25C22.3564 11.25 22.6982 11.3916 22.9502 11.6436C23.2022 11.8956 23.3438 12.2374 23.3438 12.5938V20.6562H31.4062C31.7626 20.6562 32.1044 20.7978 32.3564 21.0498C32.6084 21.3018 32.75 21.6436 32.75 22C32.75 22.3564 32.6084 22.6982 32.3564 22.9502C32.1044 23.2022 31.7626 23.3438 31.4062 23.3438H23.3438V31.4062C23.3438 31.7626 23.2022 32.1044 22.9502 32.3564C22.6982 32.6084 22.3564 32.75 22 32.75C21.6436 32.75 21.3018 32.6084 21.0498 32.3564C20.7978 32.1044 20.6562 31.7626 20.6562 31.4062V23.3438H12.5938C12.2374 23.3438 11.8956 23.2022 11.6436 22.9502C11.3916 22.6982 11.25 22.3564 11.25 22C11.25 21.6436 11.3916 21.3018 11.6436 21.0498C11.8956 20.7978 12.2374 20.6562 12.5938 20.6562H20.6562V12.5938C20.6562 12.2374 20.7978 11.8956 21.0498 11.6436C21.3018 11.3916 21.6436 11.25 22 11.25Z" fill="#354DE1"/>
</svg>
