<svg width="20" height="20" viewBox="0 0 20 20" fill="none" xmlns="http://www.w3.org/2000/svg">
    <path
        d="M12.2687 7.70508C12.0564 7.70508 11.8843 7.87981 11.8843 8.0954V15.4724C11.8843 15.6879 12.0564 15.8627 12.2687 15.8627C12.4811 15.8627 12.6532 15.6879 12.6532 15.4724V8.0954C12.6532 7.87981 12.4811 7.70508 12.2687 7.70508Z"
        fill="#E64A19" />
    <path
        d="M7.73163 7.70508C7.51928 7.70508 7.34717 7.87981 7.34717 8.0954V15.4724C7.34717 15.6879 7.51928 15.8627 7.73163 15.8627C7.94399 15.8627 8.1161 15.6879 8.1161 15.4724V8.0954C8.1161 7.87981 7.94399 7.70508 7.73163 7.70508Z"
        fill="#E64A19" />
    <path
        d="M4.42544 6.62845V16.2451C4.42544 16.8135 4.63073 17.3473 4.98937 17.7303C5.34635 18.1143 5.84315 18.3324 6.36307 18.3333H13.6373C14.1573 18.3324 14.6541 18.1143 15.011 17.7303C15.3696 17.3473 15.5749 16.8135 15.5749 16.2451V6.62845C16.2878 6.43634 16.7498 5.73712 16.6544 4.99445C16.5589 4.25193 15.9358 3.69649 15.1981 3.69634H13.2297V3.20844C13.2319 2.79814 13.0721 2.40417 12.786 2.11432C12.4999 1.82463 12.1113 1.66332 11.7071 1.66668H8.2932C7.88907 1.66332 7.5004 1.82463 7.2143 2.11432C6.92821 2.40417 6.76841 2.79814 6.77067 3.20844V3.69634H4.80224C4.06455 3.69649 3.44145 4.25193 3.34593 4.99445C3.25057 5.73712 3.71253 6.43634 4.42544 6.62845ZM13.6373 17.5527H6.36307C5.70573 17.5527 5.19436 16.9794 5.19436 16.2451V6.66276H14.806V16.2451C14.806 16.9794 14.2946 17.5527 13.6373 17.5527ZM7.53959 3.20844C7.53704 3.0052 7.61574 2.80958 7.75781 2.66611C7.89973 2.52263 8.09286 2.44381 8.2932 2.44732H11.7071C11.9075 2.44381 12.1006 2.52263 12.2425 2.66611C12.3846 2.80943 12.4633 3.0052 12.4607 3.20844V3.69634H7.53959V3.20844ZM4.80224 4.47697H15.1981C15.5803 4.47697 15.8901 4.79152 15.8901 5.17955C15.8901 5.56758 15.5803 5.88212 15.1981 5.88212H4.80224C4.42003 5.88212 4.11021 5.56758 4.11021 5.17955C4.11021 4.79152 4.42003 4.47697 4.80224 4.47697Z"
        fill="#E64A19" />
    <path
        d="M10.0002 7.70508C9.78783 7.70508 9.61572 7.87981 9.61572 8.0954V15.4724C9.61572 15.6879 9.78783 15.8627 10.0002 15.8627C10.2125 15.8627 10.3847 15.6879 10.3847 15.4724V8.0954C10.3847 7.87981 10.2125 7.70508 10.0002 7.70508Z"
        fill="#E64A19" />
</svg>
    