<svg width="12" height="13" viewBox="0 0 12 13" fill="none" xmlns="http://www.w3.org/2000/svg">
    <path
        d="M6.11344 6.9526C7.01221 6.9526 7.7408 6.23037 7.7408 5.33946C7.7408 4.44855 7.01221 3.72632 6.11344 3.72632C5.21468 3.72632 4.48608 4.44855 4.48608 5.33946C4.48608 6.23037 5.21468 6.9526 6.11344 6.9526Z"
        stroke="#171717" stroke-linecap="round" stroke-linejoin="round" />
    <path
        d="M10.9956 5.33943C10.9956 9.10343 6.11353 12.3297 6.11353 12.3297C6.11353 12.3297 1.23145 9.10343 1.23145 5.33943C1.23145 4.05593 1.74581 2.825 2.66137 1.91744C3.57694 1.00987 4.81872 0.5 6.11353 0.5C7.40833 0.5 8.65011 1.00987 9.56568 1.91744C10.4812 2.825 10.9956 4.05593 10.9956 5.33943Z"
        stroke="#171717" stroke-linecap="round" stroke-linejoin="round" />
</svg>
    