<svg width="20" height="20" viewBox="0 0 20 20" fill="none" xmlns="http://www.w3.org/2000/svg">
    <path fill-rule="evenodd" clip-rule="evenodd"
        d="M17.8446 5.66898C16.1949 7.31866 12.3229 11.1899 11.3786 12.1311C11.1745 12.3344 10.9316 12.495 10.6709 12.5998C9.91356 12.914 8.06602 13.6388 7.52286 13.6753C7.19928 13.697 6.88192 13.5775 6.65224 13.3478C6.42256 13.1181 6.30306 12.8008 6.32479 12.4772C6.36126 11.934 7.086 10.088 7.39482 9.33381C7.50268 9.0661 7.6633 8.82323 7.86738 8.61993L14.3311 2.15548C14.6438 1.84277 15.069 1.66663 15.5113 1.66663C15.9536 1.66663 16.3788 1.84277 16.6915 2.15548L17.8446 3.30854C18.1573 3.62125 18.3334 4.04647 18.3334 4.48876C18.3334 4.93105 18.1573 5.35628 17.8446 5.66898ZM7.49104 12.509C8.02179 12.4423 9.57292 11.7951 10.2247 11.5243C10.227 11.5235 10.2294 11.5228 10.2309 11.522C10.3528 11.4731 10.4629 11.4002 10.5553 11.3078L10.5561 11.307C11.5019 10.3658 15.3724 6.49537 17.0213 4.8457C17.1159 4.75103 17.1695 4.623 17.1695 4.48876C17.1695 4.35452 17.1159 4.22649 17.0213 4.13182L15.8682 2.97876C15.7736 2.88409 15.6455 2.83055 15.5113 2.83055C15.377 2.83055 15.249 2.88409 15.1543 2.97876L8.68989 9.44321C8.59677 9.53555 8.52383 9.64651 8.47495 9.76834L8.4734 9.77144C8.20569 10.4248 7.55777 11.9775 7.49104 12.509Z"
        fill="#354DE1" />
    <path fill-rule="evenodd" clip-rule="evenodd"
        d="M16.3071 6.38286C16.5337 6.61022 16.5337 6.97879 16.3071 7.20615C16.0797 7.4335 15.7111 7.4335 15.4838 7.20615L12.7936 4.51592C12.5662 4.28857 12.5662 3.91999 12.7936 3.69264C13.0209 3.46606 13.3895 3.46606 13.6168 3.69264L16.3071 6.38286Z"
        fill="#354DE1" />
    <path fill-rule="evenodd" clip-rule="evenodd"
        d="M11.5578 11.1325C11.7851 11.359 11.7851 11.7284 11.5578 11.955C11.3312 12.1823 10.9618 12.1823 10.7353 11.955L8.04503 9.26475C7.81767 9.03817 7.81767 8.66882 8.04503 8.44224C8.27161 8.21489 8.64096 8.21489 8.86754 8.44224L11.5578 11.1325Z"
        fill="#354DE1" />
    <path fill-rule="evenodd" clip-rule="evenodd"
        d="M7.29215 3.20227C7.6134 3.20227 7.87412 3.46299 7.87412 3.78423C7.87412 4.10548 7.6134 4.3662 7.29215 4.3662H4.57632C3.61181 4.3662 2.83043 5.14758 2.83043 6.11209V15.4235C2.83043 15.8868 3.01433 16.3306 3.34178 16.658C3.66923 16.9855 4.11308 17.1694 4.57632 17.1694H14.6637C15.1269 17.1694 15.5708 16.9855 15.8982 16.658C16.2257 16.3306 16.4096 15.8868 16.4096 15.4235V12.7077C16.4096 12.3864 16.6703 12.1257 16.9915 12.1257C17.3128 12.1257 17.5735 12.3864 17.5735 12.7077V15.4235C17.5735 16.1956 17.267 16.9351 16.7215 17.4813C16.1752 18.0268 15.4358 18.3333 14.6637 18.3333H4.57632C3.80425 18.3333 3.06477 18.0268 2.5185 17.4813C1.973 16.9351 1.6665 16.1956 1.6665 15.4235V6.11209C1.6665 4.50509 2.96933 3.20227 4.57632 3.20227H7.29215Z"
        fill="#354DE1" />
</svg>
    