<svg width="20" height="20" viewBox="0 0 20 20" fill="none" xmlns="http://www.w3.org/2000/svg">
    <path
        d="M10 10.8334C10.4603 10.8334 10.8334 10.4603 10.8334 10.0001C10.8334 9.53984 10.4603 9.16675 10 9.16675C9.53978 9.16675 9.16669 9.53984 9.16669 10.0001C9.16669 10.4603 9.53978 10.8334 10 10.8334Z"
        stroke="#fff" stroke-width="2" stroke-linecap="round" stroke-linejoin="round" />
    <path
        d="M10 4.99992C10.4603 4.99992 10.8334 4.62682 10.8334 4.16659C10.8334 3.70635 10.4603 3.33325 10 3.33325C9.53978 3.33325 9.16669 3.70635 9.16669 4.16659C9.16669 4.62682 9.53978 4.99992 10 4.99992Z"
        stroke="#fff" stroke-width="2" stroke-linecap="round" stroke-linejoin="round" />
    <path
        d="M10 16.6667C10.4603 16.6667 10.8334 16.2936 10.8334 15.8333C10.8334 15.3731 10.4603 15 10 15C9.53978 15 9.16669 15.3731 9.16669 15.8333C9.16669 16.2936 9.53978 16.6667 10 16.6667Z"
        stroke="#fff" stroke-width="2" stroke-linecap="round" stroke-linejoin="round" />
</svg>
    